<?xml version="1.0" standalone="no"?>
<!DOCTYPE svg PUBLIC "-//W3C//DTD SVG 20010904//EN"
 "http://www.w3.org/TR/2001/REC-SVG-20010904/DTD/svg10.dtd">
<svg version="1.0" xmlns="http://www.w3.org/2000/svg"
 width="520.000000pt" height="520.000000pt" viewBox="0 0 520.000000 520.000000"
 preserveAspectRatio="xMidYMid meet">
<metadata>
Created by potrace 1.11, written by Peter Selinger 2001-2013
</metadata>
<g transform="translate(0.000000,520.000000) scale(0.100000,-0.100000)"
fill="#000000" stroke="none">
<path d="M4185 5170 c8 -16 22 -44 30 -61 8 -17 15 -35 15 -40 0 -10 49 -123
75 -172 8 -16 15 -36 15 -45 1 -14 5 -12 20 7 11 13 20 31 20 40 0 9 6 25 14
36 7 11 18 36 25 56 6 20 20 53 31 74 11 22 20 47 20 56 0 10 4 19 9 21 5 2
13 15 16 31 6 21 4 27 -9 27 -9 0 -19 -7 -22 -15 -4 -8 -13 -15 -20 -15 -8 0
-17 7 -20 15 -8 21 -111 21 -134 0 -17 -15 -50 -11 -50 6 0 5 -11 9 -25 9 -23
0 -24 -1 -10 -30z m119 -56 c9 -3 16 -15 16 -25 0 -14 -7 -19 -30 -19 -23 0
-30 5 -30 19 0 11 6 22 13 24 6 3 13 6 14 6 1 1 8 -2 17 -5z m96 -19 c0 -18
-5 -25 -19 -25 -11 0 -23 5 -26 10 -11 18 3 40 25 40 15 0 20 -7 20 -25z m-42
-113 c3 -18 -1 -22 -21 -22 -28 0 -45 29 -25 42 21 13 43 4 46 -20z"/>
<path d="M2640 5080 c0 -5 5 -10 10 -10 6 0 10 5 10 10 0 6 -4 10 -10 10 -5 0
-10 -4 -10 -10z"/>
<path d="M4916 3910 c3 -19 12 -48 20 -64 7 -15 17 -44 20 -65 7 -36 38 -89
62 -104 6 -4 12 -13 12 -19 0 -6 16 -26 35 -45 19 -19 35 -37 35 -40 0 -7 81
-97 92 -101 4 -2 7 21 7 52 -1 31 -5 56 -10 56 -4 0 -15 7 -23 16 -14 13 -16
13 -16 0 0 -8 8 -17 18 -19 13 -4 14 -5 1 -6 -8 0 -25 8 -36 18 -12 11 -24 17
-27 14 -3 -4 -6 -1 -6 5 0 6 -11 22 -25 36 -29 29 -31 36 -10 36 8 0 15 5 15
10 0 7 -7 7 -20 0 -23 -12 -40 -6 -40 15 0 8 -13 36 -30 62 -16 26 -30 51 -30
56 0 8 -12 38 -39 97 -10 23 -11 22 -5 -10z"/>
<path d="M3297 3373 c-12 -7 -41 -12 -65 -13 -73 0 -178 -44 -236 -97 -44 -42
-106 -133 -89 -133 3 0 0 -7 -8 -16 -14 -17 -98 -17 -111 0 -3 6 -24 11 -46
12 -33 1 -41 -2 -45 -18 -3 -11 -10 -17 -15 -14 -5 3 -32 -4 -61 -14 -28 -11
-57 -20 -65 -20 -14 0 -106 111 -106 129 0 6 -5 11 -11 11 -7 0 -35 15 -63 34
-28 18 -76 39 -106 47 -30 7 -59 16 -65 20 -14 9 -217 8 -230 -1 -5 -4 -48
-13 -95 -20 -104 -15 -208 -63 -265 -123 -50 -54 -105 -136 -105 -159 0 -15
-9 -18 -50 -18 l-50 0 0 -54 c0 -57 9 -65 66 -66 23 0 34 -23 34 -72 0 -15 4
-29 9 -32 5 -4 17 -32 27 -64 17 -53 49 -113 67 -120 4 -2 7 -9 7 -16 0 -28
150 -147 230 -182 66 -30 192 -43 265 -28 17 3 39 7 50 9 24 3 56 16 70 27 6
5 35 24 65 44 31 19 66 51 79 70 14 19 35 45 48 57 12 12 23 27 23 33 0 5 13
30 28 55 16 24 34 67 42 94 7 28 17 55 21 60 4 6 11 43 15 83 5 56 12 79 28
95 27 27 70 47 99 47 13 0 29 6 35 12 9 9 15 10 20 2 4 -6 29 -13 55 -16 62
-7 87 -30 87 -79 0 -21 5 -41 10 -44 6 -3 10 -17 10 -31 0 -14 9 -43 20 -64
11 -22 18 -40 15 -40 -4 0 3 -13 14 -29 12 -16 21 -32 21 -35 0 -11 91 -130
113 -149 51 -43 117 -87 129 -87 8 0 23 -6 33 -14 11 -8 25 -12 31 -9 7 2 15
0 19 -6 7 -13 165 -15 165 -3 0 5 24 14 53 21 45 10 123 56 172 100 24 22 75
81 75 86 0 4 7 13 15 21 8 8 19 33 25 54 6 22 15 40 20 40 4 0 11 19 15 43 4
23 11 45 16 48 5 3 12 42 16 87 5 69 8 80 20 70 8 -6 10 -14 4 -17 -5 -4 -4
-14 5 -25 14 -20 14 -20 14 0 0 10 6 30 13 44 16 33 22 130 7 130 -6 0 -10 8
-9 18 3 33 -3 47 -10 22 -9 -32 -67 -42 -78 -13 -12 32 -75 103 -117 131 -66
45 -163 82 -212 82 -24 0 -44 4 -44 10 0 14 -136 8 -163 -7z m-1032 -170 c95
-26 186 -123 200 -213 12 -73 11 -183 -2 -210 -7 -14 -13 -30 -13 -37 0 -6
-11 -34 -25 -61 -14 -28 -25 -54 -25 -60 0 -5 -7 -12 -15 -16 -8 -3 -15 -10
-15 -15 0 -24 -123 -127 -169 -141 -20 -6 -45 -15 -56 -19 -61 -25 -145 -34
-161 -18 -4 4 -20 7 -35 7 -16 0 -51 14 -79 30 -28 17 -55 30 -59 30 -18 0
-115 89 -138 126 -37 62 -64 123 -62 140 0 4 -5 10 -12 14 -19 12 -26 170 -8
181 23 14 32 10 18 -8 -11 -13 -11 -17 -1 -20 6 -3 12 -12 12 -21 0 -35 20 12
20 48 0 19 7 53 16 75 8 22 17 48 21 58 3 9 10 17 15 17 5 0 7 4 4 8 -9 14 45
57 99 80 28 11 75 24 105 28 30 4 63 10 72 13 21 8 253 -5 293 -16z m834 15
c-5 -30 13 -48 40 -42 20 4 23 3 11 -5 -8 -6 -10 -11 -5 -12 6 -1 15 -2 20 -4
6 -1 15 -3 22 -3 7 -1 10 -9 7 -17 -5 -11 1 -15 23 -15 16 0 34 5 41 12 9 9
12 4 12 -22 l1 -35 25 30 26 30 -7 -35 c-6 -29 -5 -33 6 -22 18 17 26 15 32
-8 3 -11 10 -20 16 -20 6 0 8 7 5 15 -4 10 0 15 14 15 11 0 22 -4 24 -9 2 -4
14 -11 28 -15 14 -3 19 -3 13 0 -21 9 -15 34 9 43 25 9 54 -11 43 -29 -4 -6
-1 -9 5 -8 7 2 18 -13 25 -32 11 -34 12 -34 23 -13 7 12 12 35 12 52 0 30 1
30 18 14 12 -12 14 -21 8 -25 -7 -5 -7 -8 1 -8 7 0 16 -18 19 -40 7 -43 31
-51 26 -9 -2 20 0 19 14 -8 9 -18 20 -33 25 -33 5 0 20 -23 35 -52 19 -38 28
-48 35 -37 6 10 9 7 9 -11 0 -15 -4 -30 -8 -35 -5 -6 -14 -30 -21 -55 -7 -25
-21 -59 -30 -76 -15 -30 -96 -124 -106 -124 -2 0 -25 -14 -51 -32 -39 -26 -59
-32 -121 -36 -42 -3 -84 0 -96 6 -12 5 -44 16 -70 23 -27 6 -51 18 -54 26 -3
7 -10 13 -17 13 -32 1 -160 160 -142 177 3 4 6 1 6 -5 0 -6 19 -22 43 -34 91
-48 131 -60 212 -60 99 -1 170 29 204 88 30 51 22 61 -19 24 -106 -94 -326
-73 -440 43 -55 56 -82 122 -82 199 1 40 7 76 15 90 8 13 18 34 22 46 8 26 38
61 70 79 27 15 26 15 24 1z"/>
<path d="M2236 3015 c-97 -87 -357 -188 -433 -169 -26 7 -32 -16 -9 -35 7 -6
16 -27 19 -47 3 -20 18 -51 32 -70 111 -146 344 -113 432 59 22 44 24 57 18
126 -3 42 -6 100 -6 129 -1 28 -2 52 -2 52 -1 -1 -24 -21 -51 -45z m18 -91 c3
-9 6 -41 5 -72 -1 -67 -32 -127 -92 -176 -35 -28 -46 -31 -120 -34 -74 -3 -85
-1 -114 21 -45 33 -72 70 -79 106 -6 28 -4 31 18 31 16 0 29 -9 38 -26 25 -46
68 -69 132 -69 92 0 148 55 156 152 2 32 9 64 14 71 14 17 35 15 42 -4z"/>
<path d="M3076 3185 c4 -8 8 -15 10 -15 2 0 4 7 4 15 0 8 -4 15 -10 15 -5 0
-7 -7 -4 -15z"/>
<path d="M3090 3105 c0 -8 9 -15 20 -15 11 0 20 7 20 15 0 8 -9 15 -20 15 -11
0 -20 -7 -20 -15z"/>
<path d="M3404 3029 c-3 -6 0 -17 8 -25 13 -13 16 -13 27 0 7 8 10 20 6 26 -8
13 -32 13 -41 -1z"/>
<path d="M3270 2985 c0 -8 7 -15 15 -15 8 0 15 7 15 15 0 8 -7 15 -15 15 -8 0
-15 -7 -15 -15z"/>
<path d="M3160 2870 c0 -5 7 -10 15 -10 8 0 15 5 15 10 0 6 -7 10 -15 10 -8 0
-15 -4 -15 -10z"/>
<path d="M3376 2861 c-4 -7 -5 -15 -2 -18 9 -9 19 4 14 18 -4 11 -6 11 -12 0z"/>
<path d="M3997 3059 c7 -7 15 -10 18 -7 3 3 -2 9 -12 12 -14 6 -15 5 -6 -5z"/>
<path d="M4001 3008 c-1 -12 -9 -18 -23 -18 -18 0 -20 -2 -9 -9 8 -5 20 -7 28
-4 20 8 16 -15 -7 -34 -22 -20 -26 -34 -8 -30 8 1 13 -15 15 -47 5 -69 13 -71
13 -3 0 32 5 66 12 77 10 15 9 25 -4 52 -11 21 -17 27 -17 16z"/>
<path d="M2677 2679 c-32 -5 -66 -14 -76 -21 -49 -35 61 -74 155 -57 51 10 93
37 94 60 0 30 -53 36 -173 18z"/>
<path d="M2828 2483 c7 -3 16 -2 19 1 4 3 -2 6 -13 5 -11 0 -14 -3 -6 -6z"/>
<path d="M2870 2470 c0 -6 7 -10 15 -10 8 0 15 2 15 4 0 2 -7 6 -15 10 -8 3
-15 1 -15 -4z"/>
<path d="M2568 2453 c7 -3 16 -2 19 1 4 3 -2 6 -13 5 -11 0 -14 -3 -6 -6z"/>
<path d="M2900 2428 c-13 -39 -44 -77 -87 -106 -37 -26 -125 -30 -176 -8 -36
15 -107 83 -107 103 0 7 -2 13 -5 13 -10 0 -55 -24 -55 -30 0 -13 77 -79 121
-104 121 -66 253 -33 344 87 20 27 35 50 33 51 -6 6 -47 26 -52 26 -2 0 -9
-15 -16 -32z"/>
<path d="M4076 2405 c4 -8 10 -12 15 -9 14 8 10 24 -6 24 -9 0 -12 -6 -9 -15z"/>
<path d="M4192 2355 c-6 -27 -13 -71 -14 -97 -1 -27 -4 -48 -7 -48 -4 0 -6
-15 -6 -34 1 -24 -2 -33 -11 -29 -15 5 -30 -39 -19 -57 3 -6 1 -9 -6 -8 -7 2
-15 -8 -19 -22 -4 -18 -12 -24 -27 -22 -16 2 -23 -4 -27 -26 -5 -21 -16 -32
-41 -41 -32 -11 -48 -31 -25 -31 6 0 10 5 10 10 0 6 5 10 10 10 23 0 7 -19
-24 -30 -19 -6 -37 -16 -40 -23 -2 -7 -5 -4 -5 6 -1 9 -6 17 -12 17 -6 0 -9
-9 -6 -20 3 -11 1 -23 -4 -26 -5 -3 -9 -11 -9 -17 0 -8 3 -8 8 -2 9 13 39 32
80 50 17 9 32 20 32 25 0 6 6 10 14 10 8 0 25 14 38 31 13 17 33 41 46 53 12
13 22 26 22 30 0 4 6 14 14 21 7 8 17 36 21 62 4 26 11 53 16 59 6 7 8 54 7
105 l-3 94 -13 -50z"/>
<path d="M4076 2360 c-2 -8 -7 -32 -11 -53 -4 -28 -9 -36 -18 -29 -9 8 -12 4
-13 -14 -2 -29 -58 -95 -95 -111 -14 -6 -30 -16 -33 -22 -4 -6 -16 -11 -27
-11 -10 0 -24 -9 -31 -19 -6 -10 -17 -17 -23 -15 -6 3 -22 0 -36 -5 -19 -8
-13 -9 26 -5 28 3 60 5 73 5 12 -1 22 4 22 10 0 7 9 9 21 6 12 -3 22 0 26 9 3
8 10 14 17 14 42 0 126 127 126 190 0 41 -16 74 -24 50z"/>
<path d="M2376 2303 c-6 -14 -5 -15 5 -6 7 7 10 15 7 18 -3 3 -9 -2 -12 -12z"/>
<path d="M1205 2115 c4 -22 15 -49 26 -61 10 -11 19 -25 19 -30 0 -32 127 -99
208 -110 28 -3 52 -12 52 -18 0 -6 4 -5 9 3 5 8 16 11 25 8 8 -3 18 -2 21 3 4
6 17 10 30 10 13 0 26 3 28 8 8 11 -46 12 -60 0 -9 -7 -13 -7 -13 1 0 6 -9 11
-21 11 -11 0 -18 -4 -15 -9 9 -15 -179 38 -190 54 -6 8 -16 15 -21 15 -9 0
-24 16 -62 63 -7 9 -20 34 -28 54 l-14 38 6 -40z"/>
<path d="M3593 2098 c-9 -10 -23 -18 -32 -18 -9 0 -34 -7 -56 -15 -69 -25
-168 -14 -172 20 -2 13 -23 19 -23 7 0 -6 -10 -8 -22 -4 -14 3 -19 1 -14 -6 4
-7 -10 -19 -36 -31 -53 -24 -205 -64 -235 -63 -13 1 -23 -2 -23 -6 0 -4 -26
-9 -57 -10 -32 -1 -75 -7 -96 -13 -20 -5 -65 -11 -100 -12 -34 -2 -67 -6 -73
-10 -16 -9 -186 -20 -304 -19 -52 0 -124 0 -160 0 -339 -1 -379 0 -442 14 -38
8 -68 12 -68 9 0 -6 45 -30 133 -71 48 -22 168 -49 272 -61 39 -4 102 -13 140
-19 86 -14 543 -14 605 -1 25 6 66 15 92 21 26 5 60 10 77 10 16 0 33 5 36 10
4 6 10 8 13 6 7 -4 31 2 162 39 30 9 62 18 70 20 8 2 29 10 45 19 17 9 36 16
44 16 8 0 23 7 33 17 17 15 18 15 18 -3 1 -17 2 -17 10 -2 6 9 23 19 39 23 16
3 32 13 35 21 3 8 14 14 24 14 10 0 27 9 37 20 10 11 23 20 29 20 6 0 30 18
54 40 l42 40 -40 -3 c-24 -1 -48 -9 -57 -19z"/>
<path d="M3952 1950 c0 -14 2 -19 5 -12 2 6 2 18 0 25 -3 6 -5 1 -5 -13z"/>
<path d="M3837 1879 c-10 -6 -25 -8 -33 -5 -8 3 -14 1 -14 -4 0 -6 -23 -10
-51 -10 -29 0 -48 -4 -44 -9 3 -6 -1 -14 -10 -18 -9 -5 14 -8 58 -6 39 1 76 3
81 3 4 0 6 7 3 15 -5 11 2 13 28 11 37 -3 42 3 23 22 -14 14 -18 14 -41 1z"/>
<path d="M3490 1853 c5 -2 10 -12 10 -20 0 -15 -2 -15 -18 0 -22 20 -52 5 -53
-26 -1 -21 -2 -20 -9 3 -9 27 -10 26 -14 -7 -2 -16 3 -23 15 -23 10 0 20 4 24
9 3 5 19 12 36 16 23 5 29 12 27 28 -2 11 -9 22 -16 23 -7 1 -8 0 -2 -3z m-13
-39 c-3 -3 -12 -4 -19 -1 -8 3 -5 6 6 6 11 1 17 -2 13 -5z"/>
<path d="M1010 1838 c0 -13 60 -69 69 -64 5 4 12 2 16 -4 5 -9 69 -40 82 -40
2 0 1 4 -2 10 -3 6 1 7 10 3 13 -4 14 -8 4 -14 -17 -10 -11 -15 29 -24 19 -4
32 -3 32 3 0 10 -114 72 -132 72 -5 0 -21 14 -35 31 -19 22 -28 27 -34 18 -6
-10 -11 -10 -23 0 -9 8 -16 11 -16 9z m58 -43 c-3 -3 -9 2 -12 12 -6 14 -5 15
5 6 7 -7 10 -15 7 -18z"/>
<path d="M1680 1809 c0 -5 5 -7 10 -4 6 3 10 8 10 11 0 2 -4 4 -10 4 -5 0 -10
-5 -10 -11z"/>
<path d="M3353 1794 c-3 -9 -13 -14 -23 -11 -9 2 -25 -2 -36 -10 -17 -13 -15
-14 21 -7 22 4 42 11 43 16 2 5 10 4 18 -3 11 -9 14 -7 14 10 0 25 -28 29 -37
5z"/>
<path d="M1686 1782 c-5 -9 2 -63 10 -71 2 -2 4 14 4 37 0 41 -4 50 -14 34z"/>
<path d="M1848 1735 c-6 -27 6 -35 16 -10 3 8 17 15 31 15 28 0 35 -20 8 -21
-15 0 -15 -2 2 -8 19 -8 18 -9 -5 -13 -25 -5 -25 -5 3 -7 15 0 27 -6 27 -12 0
-5 5 -7 11 -3 8 5 8 9 -1 14 -8 5 -7 9 4 13 9 4 16 2 16 -3 0 -5 12 -5 29 0
32 9 42 5 35 -15 -7 -17 34 -31 48 -17 8 8 4 9 -11 5 -12 -3 -21 -1 -21 6 0 6
5 11 11 11 6 0 3 7 -5 16 -11 11 -25 14 -46 9 -21 -5 -30 -3 -30 6 0 10 -3 10
-12 1 -17 -17 -31 -15 -25 3 7 17 3 20 -44 29 -33 6 -37 4 -41 -19z"/>
<path d="M1247 1730 c10 -11 24 -20 33 -20 13 0 13 -2 0 -11 -13 -9 -13 -10 0
-5 8 3 23 9 33 12 9 4 17 13 17 20 0 19 -16 18 -24 -2 -5 -13 -9 -13 -32 5
-34 27 -49 27 -27 1z"/>
<path d="M1344 1710 c-23 -9 -41 -30 -27 -30 5 0 17 6 28 14 11 7 29 16 40 19
l20 5 -20 0 c-11 0 -30 -3 -41 -8z"/>
<path d="M1418 1713 c7 -3 16 -2 19 1 4 3 -2 6 -13 5 -11 0 -14 -3 -6 -6z"/>
<path d="M2813 1704 c-8 -21 -2 -23 25 -9 23 12 23 12 2 18 -13 3 -23 0 -27
-9z"/>
<path d="M2898 1713 c7 -3 16 -2 19 1 4 3 -2 6 -13 5 -11 0 -14 -3 -6 -6z"/>
<path d="M1450 1701 c0 -5 10 -11 23 -13 12 -2 21 -9 20 -16 -2 -6 2 -12 7
-12 20 0 10 38 -12 44 -31 8 -38 7 -38 -3z"/>
<path d="M1539 1699 c-9 -6 7 -9 45 -9 33 0 57 3 53 6 -10 10 -83 13 -98 3z"/>
<path d="M2330 1699 c0 -5 10 -9 22 -9 12 0 18 3 14 7 -10 11 -36 12 -36 2z"/>
<path d="M1375 1690 c-9 -15 4 -30 23 -29 15 1 15 2 -1 6 -9 2 -15 9 -12 13 3
5 17 5 32 -1 28 -10 39 -7 28 10 -8 14 -62 14 -70 1z"/>
<path d="M1684 1691 c-2 -2 -1 -8 2 -12 7 -13 52 -11 59 1 5 8 12 7 23 -2 13
-11 14 -11 10 2 -3 10 -18 15 -47 15 -24 0 -44 -2 -47 -4z"/>
<path d="M1804 1685 c-17 -13 -17 -14 -1 -15 9 0 17 4 17 9 0 5 10 12 23 14
20 4 20 4 1 6 -11 0 -29 -6 -40 -14z"/>
<path d="M1985 1680 c3 -5 8 -10 11 -10 2 0 4 5 4 10 0 6 -5 10 -11 10 -5 0
-7 -4 -4 -10z"/>
<path d="M2105 1670 c-13 -6 -15 -9 -5 -9 8 0 22 4 30 9 18 12 2 12 -25 0z"/>
<path d="M2843 1668 c-25 -12 -30 -28 -10 -29 28 -2 -91 -49 -125 -49 -40 0
-59 -17 -37 -31 9 -6 0 -9 -28 -9 -28 0 -42 4 -40 12 1 8 -24 16 -73 23 -79
11 -133 32 -124 47 4 5 -3 8 -14 6 -12 -2 -28 6 -37 17 -11 14 -18 16 -21 8
-3 -7 -12 -13 -19 -13 -8 0 -28 -13 -46 -30 -18 -16 -35 -27 -38 -25 -2 3 -9
-5 -15 -18 -7 -12 -26 -29 -43 -37 -28 -13 -173 -151 -173 -164 0 -3 -21 -35
-47 -71 -27 -37 -55 -77 -63 -88 -8 -12 -59 -82 -115 -155 -55 -74 -113 -153
-130 -177 -43 -62 -100 -130 -172 -204 -36 -37 -59 -69 -56 -77 3 -8 0 -14 -6
-14 -6 0 -11 -7 -11 -15 0 -8 -10 -20 -22 -26 -13 -7 -40 -30 -61 -52 l-38
-39 198 6 c109 3 236 9 283 12 l85 6 70 105 c83 125 115 182 115 206 0 9 4 17
9 17 6 0 6 -10 1 -27 -5 -16 -11 -44 -13 -63 -2 -20 -6 -41 -10 -47 -4 -5 -10
-37 -13 -69 -4 -32 -13 -69 -20 -83 -13 -24 -12 -26 14 -33 15 -4 36 -4 47 0
11 4 79 8 150 9 234 5 389 12 455 23 39 6 89 7 125 3 33 -5 83 -5 110 -2 28 4
107 8 176 8 69 1 148 4 174 8 l47 6 -6 41 c-3 23 -9 58 -12 79 -9 48 11 43 45
-12 13 -22 39 -56 57 -76 l32 -37 74 5 c40 3 142 7 225 9 84 1 153 6 153 11 0
4 9 7 21 7 18 0 18 2 -8 25 l-28 24 38 1 c43 0 48 11 12 30 -13 7 -27 21 -30
30 -3 9 -23 31 -45 48 -129 104 -401 399 -554 602 -91 119 -158 191 -218 231
-33 21 -61 39 -63 39 -3 0 -25 14 -49 32 -38 26 -48 29 -61 18 -18 -15 -21 0
-3 18 14 14 10 14 -19 0z m-165 -175 c5 -31 -28 -47 -56 -27 -18 12 -20 19
-11 35 15 28 63 22 67 -8z m26 -252 c15 -17 15 -20 -3 -42 -16 -20 -23 -22
-38 -13 -33 20 -29 74 5 74 10 0 26 -8 36 -19z m426 -109 c0 -4 -17 -6 -37 -4
-65 6 -70 10 -15 11 28 0 52 -3 52 -7z m-942 -29 c-14 -4 -18 -16 -19 -61 -1
-95 -17 -108 -18 -14 l-1 82 28 -1 c16 -1 20 -3 10 -6z m152 -99 c0 -12 -7
-27 -15 -34 -13 -10 -19 -10 -35 5 -24 22 -26 44 -3 60 22 17 53 -2 53 -31z
m390 -85 c15 -27 -5 -51 -39 -47 -26 3 -38 26 -27 54 8 22 54 17 66 -7z m10
-347 c0 -8 -61 -34 -67 -28 -2 2 -1 11 3 20 6 16 64 24 64 8z"/>
<path d="M1528 1663 c7 -3 16 -2 19 1 4 3 -2 6 -13 5 -11 0 -14 -3 -6 -6z"/>
<path d="M4053 613 c20 -9 37 -20 37 -24 0 -5 7 -9 16 -9 9 0 30 -6 47 -14 18
-8 73 -26 122 -41 50 -14 110 -32 135 -40 40 -12 104 -29 150 -41 8 -2 42 -11
75 -19 33 -9 98 -25 145 -36 119 -27 121 -28 81 -45 -18 -8 -40 -14 -49 -14
-8 0 -21 -8 -28 -17 -9 -13 -13 -14 -14 -4 0 10 -9 12 -35 7 -24 -5 -35 -3
-35 5 0 8 -4 8 -15 -1 -15 -12 -94 -18 -111 -8 -5 3 -65 8 -134 11 -69 2 -108
2 -87 0 36 -4 41 -10 38 -44 -2 -14 13 -18 86 -24 48 -3 108 -11 133 -17 25
-5 125 -13 224 -17 102 -5 181 -12 185 -18 5 -10 45 -19 149 -37 l33 -6 -2
141 -1 140 -46 -7 c-26 -4 -55 -11 -65 -16 -9 -5 -23 -5 -30 -1 -6 4 -19 9
-27 11 -8 1 -26 5 -40 8 -14 3 -34 6 -45 7 -11 1 -26 6 -32 10 -7 5 -17 6 -22
3 -5 -3 -11 0 -14 8 -4 9 -14 12 -25 9 -11 -2 -23 0 -26 6 -4 5 -13 8 -21 4
-9 -3 -22 0 -30 7 -8 7 -22 10 -30 6 -8 -3 -15 -1 -15 4 0 6 -13 10 -30 10
-16 0 -30 4 -30 9 0 4 -11 6 -25 3 -14 -2 -25 0 -25 6 0 6 -40 16 -90 23 -49
7 -90 16 -90 20 0 4 -28 10 -62 14 -35 4 -67 10 -73 13 -5 3 -27 5 -49 3 -21
-1 -42 2 -45 7 -3 5 -49 12 -101 15 -93 6 -94 6 -57 -10z m937 -264 c0 -15
-33 -24 -38 -11 -2 7 -10 12 -18 12 -8 0 -14 4 -14 8 0 4 16 6 35 4 19 -2 35
-8 35 -13z m-10 -39 c0 -16 -30 -24 -42 -12 -8 8 -17 8 -30 1 -11 -6 -18 -6
-18 0 0 11 23 18 63 20 15 0 27 -4 27 -9z m-335 -30 c3 -5 -1 -10 -10 -10 -9
0 -13 5 -10 10 3 6 8 10 10 10 2 0 7 -4 10 -10z m55 0 c0 -5 -8 -10 -17 -10
-15 0 -16 2 -3 10 19 12 20 12 20 0z m40 0 c0 -5 -5 -10 -11 -10 -5 0 -7 5 -4
10 3 6 8 10 11 10 2 0 4 -4 4 -10z m97 -6 c-3 -3 -12 -4 -19 -1 -8 3 -5 6 6 6
11 1 17 -2 13 -5z"/>
<path d="M4045 401 c-4 -7 7 -11 29 -11 20 0 38 0 41 0 3 0 4 3 3 8 -4 12 -65
14 -73 3z"/>
<path d="M4590 350 c0 -5 5 -10 10 -10 6 0 10 5 10 10 0 6 -4 10 -10 10 -5 0
-10 -4 -10 -10z"/>
<path d="M2120 79 c-49 -20 -284 -59 -361 -59 -43 0 -81 -5 -84 -10 -4 -7 138
-10 419 -10 277 0 426 3 426 10 0 6 -6 10 -12 10 -7 1 -31 9 -53 20 -22 11
-54 19 -70 20 -17 0 -36 5 -43 12 -16 16 -189 21 -222 7z"/>
<path d="M4999 46 c-5 -4 -142 -11 -574 -26 -165 -6 -302 -13 -304 -16 -2 -2
239 -4 537 -4 l542 0 0 25 c0 25 0 25 -98 25 -54 0 -101 -2 -103 -4z"/>
<path d="M1475 10 c-4 -6 5 -10 20 -10 15 0 24 4 20 10 -8 13 -32 13 -40 0z"/>
<path d="M1578 3 c7 -3 16 -2 19 1 4 3 -2 6 -13 5 -11 0 -14 -3 -6 -6z"/>
<path d="M4038 3 c7 -3 16 -2 19 1 4 3 -2 6 -13 5 -11 0 -14 -3 -6 -6z"/>
</g>
</svg>
